<svg width="187" height="40" viewBox="0 0 187 40" fill="none" xmlns="http://www.w3.org/2000/svg">
<path d="M29.892 17.828C29.3867 18.3364 28.9997 18.95 28.7587 19.6249C28.5176 20.3 28.4284 21.0199 28.4973 21.7333L28.4733 21.7093C28.5443 22.5492 28.4309 23.3943 28.1415 24.1859C27.852 24.9773 27.3933 25.6961 26.7975 26.2921C26.2015 26.888 25.4827 27.3468 24.6911 27.6361C23.8996 27.9256 23.0544 28.0389 22.2147 27.968L22.2387 27.992C21.2341 27.8985 20.2252 28.1171 19.3493 28.618C18.4736 29.1189 17.7736 29.8777 17.3449 30.7911C16.9163 31.7044 16.7796 32.7276 16.9537 33.7215C17.128 34.7152 17.6044 35.6311 18.3181 36.3441C19.0319 37.0572 19.9481 37.5328 20.942 37.706C21.936 37.8793 22.9591 37.7417 23.872 37.3123C24.7849 36.8827 25.5431 36.1821 26.0432 35.3059C26.5433 34.4296 26.7611 33.4205 26.6667 32.416L26.692 32.44C26.6211 31.6003 26.7343 30.7551 27.0237 29.9635C27.3132 29.172 27.772 28.4532 28.3679 27.8572C28.9639 27.2613 29.6827 26.8025 30.4741 26.5132C31.2657 26.2237 32.1108 26.1104 32.9507 26.1813L32.9253 26.1573C33.7459 26.2311 34.5719 26.0965 35.3267 25.7661C36.0813 25.4357 36.7405 24.9201 37.2429 24.2672C37.7453 23.6143 38.0749 22.8449 38.2008 22.0308C38.3268 21.2165 38.2452 20.3837 37.9636 19.6093C37.682 18.8351 37.2095 18.1444 36.5899 17.6013C35.9703 17.0583 35.2236 16.6804 34.4191 16.5028C33.6145 16.3252 32.7781 16.3535 31.9875 16.5851C31.1968 16.8168 30.4775 17.2443 29.896 17.828H29.892Z" fill="#394149"/>
<path d="M20.056 24.848L20.0307 24.824C20.7444 24.8959 21.4652 24.8083 22.1411 24.5675C22.8168 24.3267 23.4307 23.9388 23.9381 23.4317C24.4455 22.9247 24.834 22.3111 25.0752 21.6355C25.3165 20.9599 25.4047 20.2392 25.3333 19.5253L25.3587 19.5493C25.2877 18.7095 25.4011 17.8644 25.6904 17.0728C25.9799 16.2813 26.4387 15.5625 27.0345 14.9665C27.6305 14.3707 28.3493 13.9119 29.1408 13.6225C29.9324 13.333 30.7775 13.2198 31.6173 13.2907L31.592 13.2667C32.5967 13.3611 33.6059 13.1431 34.4821 12.6428C35.3585 12.1425 36.0591 11.384 36.4884 10.4708C36.9177 9.55765 37.0549 8.53428 36.8813 7.54027C36.7077 6.54625 36.2317 5.63001 35.5181 4.91649C34.8047 4.20299 33.8884 3.72693 32.8944 3.55331C31.9004 3.37967 30.8771 3.51688 29.9639 3.94624C29.0507 4.37559 28.2923 5.07619 27.7919 5.95247C27.2915 6.82873 27.0736 7.83803 27.168 8.84267L27.144 8.81733C27.2151 9.65719 27.102 10.5024 26.8127 11.2941C26.5233 12.0857 26.0645 12.8046 25.4687 13.4007C24.8727 13.9965 24.1537 14.4553 23.3621 14.7447C22.5704 15.034 21.7252 15.1471 20.8853 15.076L20.9093 15.1013C20.1956 15.0295 19.4747 15.1171 18.7989 15.3579C18.1232 15.5985 17.5093 15.9865 17.0019 16.4936C16.4944 17.0007 16.106 17.6143 15.8647 18.2899C15.6235 18.9655 15.5353 19.6861 15.6067 20.4L15.5827 20.376C15.6533 21.2157 15.5399 22.0608 15.2504 22.8523C14.9608 23.6436 14.5021 24.3624 13.9063 24.9583C13.3103 25.5541 12.5916 26.0128 11.8002 26.3024C11.0088 26.5919 10.1637 26.7053 9.324 26.6347L9.348 26.6587C8.34336 26.5643 7.33407 26.7821 6.45779 27.2825C5.58152 27.7829 4.88092 28.5413 4.45158 29.4545C4.02222 30.3677 3.88499 31.3911 4.05863 32.3851C4.23227 33.3791 4.70832 34.2953 5.42183 35.0088C6.13535 35.7224 7.05159 36.1984 8.0456 36.372C9.03962 36.5456 10.063 36.4084 10.9761 35.9791C11.8893 35.5497 12.6478 34.8492 13.1481 33.9729C13.6485 33.0965 13.8664 32.0873 13.772 31.0827L13.7973 31.1067C13.7264 30.2668 13.8397 29.4217 14.1292 28.6301C14.4185 27.8387 14.8773 27.1199 15.4732 26.5239C16.0692 25.928 16.788 25.4692 17.5795 25.1799C18.3711 24.8904 19.2161 24.7771 20.056 24.848Z" fill="#0061FF"/>
<path d="M11.1199 22.172C11.6252 21.6637 12.0121 21.0501 12.253 20.3751C12.4938 19.7 12.5827 18.98 12.5132 18.2667L12.5385 18.2907C12.4676 17.4507 12.5809 16.6052 12.8705 15.8135C13.1601 15.0217 13.6191 14.3028 14.2153 13.7068C14.8116 13.1108 15.5307 12.6522 16.3225 12.3629C17.1144 12.0736 17.9599 11.9607 18.7999 12.032L18.7745 12.008C19.7788 12.1021 20.7877 11.8841 21.6636 11.3838C22.5395 10.8835 23.2396 10.1252 23.6688 9.21231C24.0979 8.29943 24.2349 7.27643 24.0613 6.28279C23.8877 5.28915 23.4117 4.37326 22.6985 3.66001C21.9853 2.94675 21.0693 2.47086 20.0757 2.29723C19.0821 2.12359 18.0591 2.26069 17.1463 2.68978C16.2333 3.11887 15.4751 3.8191 14.9748 4.69497C14.4744 5.57083 14.2564 6.57971 14.3505 7.58401L14.3265 7.56001C14.3975 8.39981 14.2841 9.24497 13.9947 10.0365C13.7052 10.828 13.2466 11.5468 12.6506 12.1428C12.0547 12.7387 11.3359 13.1974 10.5443 13.4868C9.75282 13.7763 8.90768 13.8896 8.06788 13.8187L8.09188 13.8427C7.2713 13.7691 6.44542 13.9039 5.69078 14.2344C4.93614 14.5649 4.27714 15.0807 3.77486 15.7337C3.27258 16.3867 2.94327 17.156 2.81743 17.9701C2.69161 18.7844 2.77333 19.6172 3.05502 20.3913C3.33671 21.1656 3.80929 21.8561 4.42893 22.3991C5.04857 22.9421 5.79524 23.3199 6.59974 23.4975C7.40424 23.6749 8.24054 23.6465 9.03117 23.4149C9.82178 23.1832 10.5411 22.7557 11.1225 22.172H11.1199Z" fill="#394149"/>
<path d="M50.74 23.3C51.0333 23.82 51.3533 24.2733 51.7 24.66C52.06 25.0467 52.4533 25.3467 52.88 25.56C53.3067 25.7733 53.7667 25.88 54.26 25.88C54.8333 25.88 55.3 25.7333 55.66 25.44C56.02 25.1467 56.2 24.7467 56.2 24.24C56.2 23.8 56.0867 23.4467 55.86 23.18C55.6467 22.9133 55.32 22.68 54.88 22.48C54.4533 22.2667 53.9267 22.04 53.3 21.8C52.9667 21.68 52.58 21.52 52.14 21.32C51.7133 21.1067 51.3067 20.84 50.92 20.52C50.5333 20.1867 50.2133 19.7867 49.96 19.32C49.7067 18.84 49.58 18.2667 49.58 17.6C49.58 16.8 49.78 16.1133 50.18 15.54C50.5933 14.9533 51.1467 14.5067 51.84 14.2C52.5467 13.88 53.3333 13.72 54.2 13.72C55.0933 13.72 55.86 13.8733 56.5 14.18C57.1533 14.4733 57.6933 14.8533 58.12 15.32C58.56 15.7733 58.9 16.2467 59.14 16.74L56.9 17.98C56.7133 17.6467 56.4867 17.3467 56.22 17.08C55.9667 16.8 55.6733 16.58 55.34 16.42C55.0067 16.2467 54.6267 16.16 54.2 16.16C53.64 16.16 53.22 16.2933 52.94 16.56C52.66 16.8133 52.52 17.1133 52.52 17.46C52.52 17.8067 52.6333 18.1133 52.86 18.38C53.0867 18.6333 53.4333 18.88 53.9 19.12C54.3667 19.3467 54.9533 19.58 55.66 19.82C56.1133 19.98 56.5467 20.18 56.96 20.42C57.3867 20.66 57.7667 20.9533 58.1 21.3C58.4467 21.6333 58.7133 22.0333 58.9 22.5C59.1 22.9533 59.2 23.48 59.2 24.08C59.2 24.76 59.0667 25.3667 58.8 25.9C58.5333 26.4333 58.1667 26.8867 57.7 27.26C57.2333 27.62 56.7067 27.8933 56.12 28.08C55.5467 28.28 54.94 28.38 54.3 28.38C53.4467 28.38 52.6467 28.22 51.9 27.9C51.1667 27.5667 50.5267 27.12 49.98 26.56C49.4333 26 49.0067 25.3933 48.7 24.74L50.74 23.3ZM63.1317 25.14C63.1317 25.4067 63.1984 25.64 63.3317 25.84C63.4651 26.0267 63.6451 26.1733 63.8717 26.28C64.1117 26.3733 64.3717 26.42 64.6517 26.42C65.0517 26.42 65.4117 26.34 65.7317 26.18C66.0517 26.0067 66.3117 25.7667 66.5117 25.46C66.7117 25.14 66.8117 24.76 66.8117 24.32L67.1317 25.52C67.1317 26.1067 66.9651 26.6 66.6317 27C66.3117 27.4 65.8917 27.7 65.3717 27.9C64.8651 28.1 64.3317 28.2 63.7717 28.2C63.1984 28.2 62.6651 28.0867 62.1717 27.86C61.6784 27.6333 61.2784 27.3067 60.9717 26.88C60.6784 26.44 60.5317 25.9067 60.5317 25.28C60.5317 24.3867 60.8451 23.68 61.4717 23.16C62.0984 22.64 62.9851 22.38 64.1317 22.38C64.7184 22.38 65.2317 22.44 65.6717 22.56C66.1251 22.68 66.5051 22.8267 66.8117 23C67.1184 23.1733 67.3384 23.34 67.4717 23.5V24.7C67.1117 24.4333 66.7051 24.2333 66.2517 24.1C65.8117 23.9667 65.3451 23.9 64.8517 23.9C64.4517 23.9 64.1251 23.9533 63.8717 24.06C63.6184 24.1533 63.4317 24.2933 63.3117 24.48C63.1917 24.6533 63.1317 24.8733 63.1317 25.14ZM62.1317 21.4L61.1717 19.64C61.6517 19.3867 62.2384 19.1467 62.9317 18.92C63.6251 18.68 64.3984 18.56 65.2517 18.56C66.0384 18.56 66.7384 18.6733 67.3517 18.9C67.9651 19.1267 68.4451 19.46 68.7917 19.9C69.1384 20.3267 69.3117 20.8533 69.3117 21.48V28H66.8117V22.02C66.8117 21.7667 66.7717 21.5533 66.6917 21.38C66.6117 21.1933 66.4851 21.04 66.3117 20.92C66.1517 20.8 65.9584 20.7133 65.7317 20.66C65.5051 20.6067 65.2517 20.58 64.9717 20.58C64.5451 20.58 64.1384 20.6267 63.7517 20.72C63.3651 20.8133 63.0317 20.9267 62.7517 21.06C62.4717 21.1933 62.2651 21.3067 62.1317 21.4ZM85.3214 22.12V28H82.7214V22.4C82.7214 21.7733 82.6147 21.3067 82.4014 21C82.1881 20.68 81.8414 20.52 81.3614 20.52C81.0414 20.52 80.7614 20.5933 80.5214 20.74C80.2814 20.8733 80.0947 21.0867 79.9614 21.38C79.8281 21.66 79.7614 22 79.7614 22.4V28H77.1814V22.4C77.1814 21.7733 77.0747 21.3067 76.8614 21C76.6481 20.68 76.3014 20.52 75.8214 20.52C75.5014 20.52 75.2214 20.5933 74.9814 20.74C74.7414 20.8733 74.5547 21.0867 74.4214 21.38C74.2881 21.66 74.2214 22 74.2214 22.4V28H71.7214V18.8H74.2214V20.16C74.4881 19.6533 74.8414 19.2667 75.2814 19C75.7214 18.7333 76.2481 18.6 76.8614 18.6C77.5414 18.6 78.1014 18.7333 78.5414 19C78.9814 19.2667 79.3014 19.66 79.5014 20.18C79.8347 19.66 80.2414 19.2667 80.7214 19C81.2147 18.7333 81.7747 18.6 82.4014 18.6C83.0814 18.6 83.6347 18.74 84.0614 19.02C84.4881 19.2867 84.8014 19.6867 85.0014 20.22C85.2147 20.74 85.3214 21.3733 85.3214 22.12ZM92.2138 28.2C91.2138 28.2 90.3404 28 89.5938 27.6C88.8471 27.2 88.2671 26.6467 87.8538 25.94C87.4538 25.22 87.2537 24.3733 87.2537 23.4C87.2537 22.4133 87.4538 21.5667 87.8538 20.86C88.2671 20.14 88.8471 19.5867 89.5938 19.2C90.3404 18.8 91.2204 18.6 92.2338 18.6C93.2471 18.6 94.1071 18.7867 94.8138 19.16C95.5338 19.52 96.0804 20.0533 96.4538 20.76C96.8271 21.4533 97.0138 22.2933 97.0138 23.28C97.0138 23.4 97.0071 23.5267 96.9938 23.66C96.9938 23.7933 96.9871 23.9 96.9738 23.98H88.7338V22.38H94.7138L94.0138 23.3C94.0671 23.22 94.1138 23.1133 94.1538 22.98C94.2071 22.8333 94.2338 22.7133 94.2338 22.62C94.2338 22.1667 94.1471 21.78 93.9738 21.46C93.8138 21.14 93.5804 20.8867 93.2738 20.7C92.9671 20.5133 92.6071 20.42 92.1938 20.42C91.6871 20.42 91.2604 20.5333 90.9138 20.76C90.5804 20.9733 90.3204 21.3 90.1338 21.74C89.9604 22.1667 89.8671 22.7 89.8538 23.34C89.8538 23.9533 89.9404 24.4733 90.1138 24.9C90.3004 25.3267 90.5738 25.6533 90.9338 25.88C91.2938 26.1067 91.7271 26.22 92.2338 26.22C92.8071 26.22 93.2938 26.1133 93.6938 25.9C94.1071 25.6733 94.4471 25.34 94.7138 24.9L96.9738 25.6C96.4938 26.4667 95.8538 27.12 95.0538 27.56C94.2671 27.9867 93.3204 28.2 92.2138 28.2ZM103.308 28.2C102.308 28.2 101.434 28 100.688 27.6C99.9408 27.2 99.3608 26.6467 98.9475 25.94C98.5475 25.22 98.3475 24.3733 98.3475 23.4C98.3475 22.4133 98.5475 21.5667 98.9475 20.86C99.3608 20.14 99.9408 19.5867 100.688 19.2C101.434 18.8 102.314 18.6 103.328 18.6C104.341 18.6 105.201 18.7867 105.908 19.16C106.628 19.52 107.174 20.0533 107.548 20.76C107.921 21.4533 108.108 22.2933 108.108 23.28C108.108 23.4 108.101 23.5267 108.088 23.66C108.088 23.7933 108.081 23.9 108.068 23.98H99.8275V22.38H105.808L105.108 23.3C105.161 23.22 105.208 23.1133 105.248 22.98C105.301 22.8333 105.328 22.7133 105.328 22.62C105.328 22.1667 105.241 21.78 105.068 21.46C104.908 21.14 104.674 20.8867 104.368 20.7C104.061 20.5133 103.701 20.42 103.288 20.42C102.781 20.42 102.354 20.5333 102.008 20.76C101.674 20.9733 101.414 21.3 101.228 21.74C101.054 22.1667 100.961 22.7 100.948 23.34C100.948 23.9533 101.034 24.4733 101.208 24.9C101.394 25.3267 101.668 25.6533 102.028 25.88C102.388 26.1067 102.821 26.22 103.328 26.22C103.901 26.22 104.388 26.1133 104.788 25.9C105.201 25.6733 105.541 25.34 105.808 24.9L108.068 25.6C107.588 26.4667 106.948 27.12 106.148 27.56C105.361 27.9867 104.414 28.2 103.308 28.2ZM112.601 18.8V28H110.061V18.8H112.601ZM115.301 21.5C115.128 21.34 114.948 21.22 114.761 21.14C114.588 21.0467 114.368 21 114.101 21C113.781 21 113.508 21.0867 113.281 21.26C113.055 21.4333 112.881 21.68 112.761 22C112.655 22.3067 112.601 22.68 112.601 23.12L111.881 22.4C111.881 21.6667 112.021 21.02 112.301 20.46C112.581 19.8867 112.948 19.4333 113.401 19.1C113.855 18.7533 114.321 18.58 114.801 18.58C115.135 18.58 115.448 18.64 115.741 18.76C116.048 18.88 116.295 19.06 116.481 19.3L115.301 21.5ZM119.034 21.84V19.26H129.314V21.84H119.034ZM127.494 14H130.354V28H127.494V14ZM118.094 14H120.954V28H118.094V14ZM135.808 24.4C135.808 25 135.928 25.4667 136.168 25.8C136.408 26.12 136.794 26.28 137.328 26.28C137.701 26.28 138.021 26.2067 138.288 26.06C138.568 25.9 138.781 25.68 138.928 25.4C139.088 25.12 139.168 24.7867 139.168 24.4V18.8H141.748V28H139.168V26.6C138.874 27.12 138.501 27.52 138.048 27.8C137.594 28.0667 137.041 28.2 136.388 28.2C135.294 28.2 134.474 27.8867 133.928 27.26C133.394 26.6333 133.128 25.7733 133.128 24.68V18.8H135.808V24.4ZM149.9 18.8H152.76L149.36 23.26L152.96 28H150.1L148.02 25.08L145.98 28H143.02L146.66 23.26L143.22 18.8H146.18L148.02 21.46L149.9 18.8Z" fill="black"/>
<path d="M155.939 27.8773C157.561 27.8773 158.877 26.5616 158.877 24.9387C158.877 23.3157 157.561 22 155.939 22C154.316 22 153 23.3157 153 24.9387C153 26.5616 154.316 27.8773 155.939 27.8773Z" fill="black"/>
</svg>
